<svg xmlns="http://www.w3.org/2000/svg" viewBox="0 0 64 64" fill="none" role="img" aria-label="Falaheen Online Quran Academy">
  <rect width="64" height="64" rx="14" fill="#1a4f46"/>
  <circle cx="32" cy="32" r="24" stroke="#c9a86a" stroke-width="1" opacity="0.5"/>
  <!-- crescent + stars -->
  <path d="M33 13.5a7.2 7.2 0 1 0 4.2 13.1 5.8 5.8 0 1 1-4.2-13.1Z" fill="#d8c08a"/>
  <path d="M43 14l.85 2.25 2.25.85-2.25.85L43 21.1l-.85-2.25-2.25-.85 2.25-.85z" fill="#d8c08a"/>
  <!-- rays -->
  <g stroke="#d8c08a" stroke-width="1" stroke-linecap="round" opacity="0.5">
    <path d="M32 32.5V26"/>
    <path d="M32 32.5l-4.5-3.6"/>
    <path d="M32 32.5l4.5-3.6"/>
  </g>
  <!-- open Quran -->
  <path d="M32 34c-3.7-2.5-8.8-3.1-13.4-2.1v12.4c4.6-1 9.7-.4 13.4 2.1 3.7-2.5 8.8-3.1 13.4-2.1V31.9c-4.6-1-9.7-.4-13.4 2.1Z"
        fill="#faf6ee" stroke="#0f322c" stroke-width="1.4" stroke-linejoin="round"/>
  <path d="M32 34v12.4" stroke="#0f322c" stroke-width="1.4" stroke-linecap="round"/>
</svg>
